# xmcd
#
# Track frame offsets:
#	150
#	21620
#	36085
#	54800
#	71437
#	88332
#	105940
#	123690
#	146840
#	164910
#	181250
#	204050
#	217917
#	231267
#
# Disc length: 3284 seconds
#
# Revision: 0
# Processed by: cddbd v1.5.2PL0 Copyright (c) Steve Scherf et al.
# Submitted via: EasyCDDAExtractor 2010.6.0.0
#
DISCID=c70cd20e
DTITLE=John Denver - The Very Best of John Denver [CD2]
DYEAR=1994
DGENRE=
TTITLE0=Rocky Mountain High
TTITLE1=Take Me Home, Country Roads
TTITLE2=Wild Montana Skies (feat. Emmylou Harris)
TTITLE3=Eclipse
TTITLE4=Like a Sad Song
TTITLE5=Some Days Are Diamonds (Some Days Are Stone)
TTITLE6=Heart to Heart
TTITLE7=Sweet Surrender (live)
TTITLE8=Looking for Space
TTITLE9=Calypso
TTITLE10=On the Wings of a Dream
TTITLE11=What One Man Can Do
TTITLE12=Perhaps Love (feat. Placido Domingo)
TTITLE13=Sunshine on My Shoulders
EXTD=
EXTT0=
EXTT1=
EXTT2=
EXTT3=
EXTT4=
EXTT5=
EXTT6=
EXTT7=
EXTT8=
EXTT9=
EXTT10=
EXTT11=
EXTT12=
EXTT13=
PLAYORDER=
